<svg width="16" height="16" viewBox="0 0 16 16" fill="none" xmlns="http://www.w3.org/2000/svg">
<g clip-path="url(#clip0)">
<path d="M5.89469 0H0V1.24844L5.89469 5.11062V0Z" fill="#00247D"/>
<path d="M0 4.26868V5.89461H2.48187L0 4.26868Z" fill="#00247D"/>
<path d="M0 10.1053V11.7312L2.48187 10.1053H0Z" fill="#00247D"/>
<path d="M16 1.24844V0H10.1053V5.11062L16 1.24844Z" fill="#00247D"/>
<path d="M15.9998 11.7312V10.1053H13.5179L15.9998 11.7312Z" fill="#00247D"/>
<path d="M10.1053 10.8893V16H16V14.7515L10.1053 10.8893Z" fill="#00247D"/>
<path d="M15.9998 5.89461V4.26868L13.5179 5.89461H15.9998Z" fill="#00247D"/>
<path d="M0 14.7515V16H5.89469V10.8893L0 14.7515Z" fill="#00247D"/>
<path d="M16.0002 14.7516V13.5038L10.7646 10.1053H12.3114L16.0002 12.4997V11.7313L13.5183 10.1053H16.0002V9.26315H9.26331V16H10.1055V10.8894L16.0002 14.7516Z" fill="#F5F5F5"/>
<path d="M0 9.26315V10.1053H2.48187L0 11.7313V12.9125L4.325 10.1053H5.87156L0 13.9166V14.7516L5.89469 10.8894V16H6.73688V9.26315H0Z" fill="#F5F5F5"/>
<path d="M6.73688 0H5.89469V5.11062L0 1.24844V2.615L5.0525 5.89469H3.50594L0 3.61906V4.26875L2.48187 5.89469H0V6.73688H6.73688V0Z" fill="#F5F5F5"/>
<path d="M16.0002 6.73688V5.89469H13.5183L16.0002 4.26875V3.07219L11.6521 5.89469H10.1055L16.0002 2.06813V1.24844L10.1055 5.11062V0H9.26331V6.73688H16.0002Z" fill="#F5F5F5"/>
<path d="M16 9.26313V6.73688H9.26313V0H6.73688V6.73688H0V9.26313H6.73688V16H9.26313V9.26313H16Z" fill="#CF142B"/>
<path d="M4.325 10.1053L0 12.9125V13.9165L5.87156 10.1053H4.325Z" fill="#CF142B"/>
<path d="M10.7644 10.1053L16 13.5037V12.4997L12.3113 10.1053H10.7644Z" fill="#CF142B"/>
<path d="M5.0525 5.89468L0 2.61499V3.61905L3.50594 5.89468H5.0525Z" fill="#CF142B"/>
<path d="M11.6519 5.89468L16 3.07218V2.06812L10.1053 5.89468H11.6519Z" fill="#CF142B"/>
</g>
<defs>
<clipPath id="clip0">
<rect width="16" height="16" rx="8" fill="white"/>
</clipPath>
</defs>
</svg>
