<svg width="40" height="24" viewBox="0 0 40 24" fill="none" xmlns="http://www.w3.org/2000/svg">
<rect x="0.5" y="0.5" width="39" height="23" rx="3.5" stroke="#ECECEC"/>
<path d="M10.6174 14.1465C11.1395 13.4852 11.4166 12.6614 11.4166 11.8158C11.4166 9.74537 9.75425 8.06516 7.70829 8.06516C5.66234 8.06516 4 9.74537 4 11.8158C4 13.8863 5.66234 15.5665 7.70829 15.5665C8.34765 15.5665 8.9657 15.4039 9.50916 15.0895L10.319 16.0543L11.4166 15.1112L10.6174 14.1465ZM9.95671 11.8158C9.95671 12.2278 9.85015 12.6397 9.64769 12.9866L8.95505 12.1627L7.85748 13.1058L8.56077 13.9405C8.29437 14.0489 8.00666 14.1031 7.71894 14.1031C6.48285 14.1031 5.48118 13.0733 5.48118 11.805C5.48118 10.5367 6.48285 9.50689 7.71894 9.50689C8.95504 9.51773 9.95671 10.5475 9.95671 11.8158Z" fill="#4FDEBB"/>
<path d="M14.0168 14.0055V8.15179H12.5569V15.458H17.6291V14.0055H14.0168Z" fill="#4FDEBB"/>
<path d="M20.5169 8.15179H19.057V15.458H20.5169V8.15179Z" fill="#4FDEBB"/>
<path d="M26.239 13.1068C27.1447 12.6949 27.7415 11.7626 27.7415 10.7437C27.7415 9.32362 26.6013 8.16373 25.2053 8.16373H22.2643V15.47H23.7242V13.3345H24.6406L26.0365 15.47H27.7734L26.239 13.1068ZM26.2816 10.7437C26.2816 11.3724 25.8021 11.871 25.2053 11.871H23.7348V9.60546H25.2053C25.8021 9.6163 26.2816 10.1149 26.2816 10.7437Z" fill="#4FDEBB"/>
<path d="M32.2918 8.05475C30.2458 8.05475 28.5835 9.73497 28.5835 11.8054C28.5835 13.8759 30.2458 15.5561 32.2918 15.5561C34.3377 15.5561 36.0001 13.8759 36.0001 11.8054C36.0001 9.73497 34.3377 8.05475 32.2918 8.05475ZM34.5295 11.8054C34.5295 13.0737 33.5279 14.1035 32.2918 14.1035C31.0557 14.1035 30.054 13.0737 30.054 11.8054C30.054 10.5371 31.0557 9.50732 32.2918 9.50732C33.5279 9.50732 34.5295 10.5371 34.5295 11.8054Z" fill="#4FDEBB"/>
</svg>
